<svg xmlns="http://www.w3.org/2000/svg" xmlns:xlink="http://www.w3.org/1999/xlink" viewBox="0 0 550 190.79"><defs><style>.cls-1{fill:#fff;}.cls-2{fill:url(#Degradado_sin_nombre_12);}.cls-3{fill:url(#Degradado_sin_nombre_20);}.cls-4{fill:url(#Degradado_sin_nombre_20-2);}.cls-5{fill:#a22a8e;}</style><linearGradient id="Degradado_sin_nombre_12" x1="213.58" y1="109.38" x2="169.11" y2="69.44" gradientUnits="userSpaceOnUse"><stop offset="0" stop-color="#a22a8e"></stop><stop offset="1" stop-color="#00005b"></stop></linearGradient><linearGradient id="Degradado_sin_nombre_20" x1="156.92" y1="-40.16" x2="156.92" y2="94.32" gradientUnits="userSpaceOnUse"><stop offset="0"></stop><stop offset="1" stop-color="#00296b"></stop></linearGradient><linearGradient id="Degradado_sin_nombre_20-2" x1="198.24" y1="87.43" x2="198.24" y2="7.33" xlink:href="#Degradado_sin_nombre_20"></linearGradient></defs><g id="Layer_2" data-name="Layer 2"><g id="Capa_1" data-name="Capa 1"><path class="cls-1" d="M24.35,190.3V164.77L14.15,178.7,4,164.77V190.3H0v-32H4.22L14.15,172l9.93-13.65h4.27v32Z"></path><path class="cls-1" d="M43.86,158.31H64.08v3.86H47.9v7.51H62v4H47.9v12.67H63.68v4H43.86Z"></path><path class="cls-1" d="M78.37,158.31H88.71a16,16,0,1,1,0,32H78.37Zm22.79,16a12.32,12.32,0,0,0-12.45-12.08H82.37v24.17h6.34A12.32,12.32,0,0,0,101.16,174.3Z"></path><path class="cls-1" d="M120.61,158.31h4v32h-4Z"></path><path class="cls-1" d="M166.67,181.76l3.15,2.34a16.55,16.55,0,0,1-13.35,6.69,16.74,16.74,0,1,1,13.4-26.73l-3.2,2.33a12.54,12.54,0,0,0-10.2-5.12,12.79,12.79,0,1,0,10.2,20.49Z"></path><path class="cls-1" d="M202.36,181H189.28l-3.55,9.3h-4.31l12.31-32h4.18l12.35,32H205.9Zm-6.52-16.9-5,12.94h9.93Z"></path><path class="cls-1" d="M223.52,158.31h4v28.08h17.52v3.91H223.52Z"></path><path class="cls-1" d="M307.87,190.3h-5.75l-6.87-6.92-4.9,4.94a8.21,8.21,0,0,1-6,2.47,8.32,8.32,0,0,1-6-2.47,8.49,8.49,0,0,1,0-11.95l4.94-4.94-2-2a6.74,6.74,0,0,1,0-9.53,6.75,6.75,0,1,1,9.53,9.57L289,171.34l6.25,6.24a5.49,5.49,0,0,0,1.16-3.46,7.05,7.05,0,0,0-.54-2.42l3.2-2.48a11.19,11.19,0,0,1,1.25,4.9v0a9.55,9.55,0,0,1-2.24,6.33Zm-15.41-9.57L286,174.3l-4.94,4.94a4.57,4.57,0,0,0,3.28,7.69,4.64,4.64,0,0,0,3.24-1.35Zm-8.18-13.93,1.84,1.84,2-2a2.8,2.8,0,0,0,0-4,2.66,2.66,0,0,0-4,0,2.82,2.82,0,0,0-.86,2A3,3,0,0,0,284.28,166.8Z"></path><path class="cls-1" d="M340.41,158.31h10.33a16,16,0,1,1,0,32H340.41Zm22.78,16a12.31,12.31,0,0,0-12.45-12.08h-6.33v24.17h6.33A12.31,12.31,0,0,0,363.19,174.3Z"></path><path class="cls-1" d="M381,158.31h20.22v3.86H385v7.51H399.1v4H385v12.67h15.77v4H381Z"></path><path class="cls-1" d="M420,165v25.3H416v-32h4.41l17.07,25.29V158.31h4v32h-4.35Z"></path><path class="cls-1" d="M464.62,162.26h-8.45v-3.95h20.94v3.95h-8.45v28h-4Z"></path><path class="cls-1" d="M507.27,181H494.19l-3.55,9.3h-4.31l12.31-32h4.18l12.35,32h-4.36Zm-6.52-16.9-5,12.94h9.93Z"></path><path class="cls-1" d="M528.43,158.31h4.05v28.08H550v3.91H528.43Z"></path><polygon class="cls-2" points="228.05 121.99 191.52 60.6 158.84 60.6 195.37 121.99 228.05 121.99"></polygon><polygon class="cls-3" points="170.32 41.31 122.31 121.99 154.99 121.99 191.52 60.6 191.52 60.6 170.32 41.31"></polygon><polygon class="cls-4" points="193.48 2.39 170.32 41.31 191.52 60.6 191.52 60.6 226.16 2.39 193.48 2.39"></polygon><polygon class="cls-5" points="156.88 2.39 124.2 2.39 158.84 60.6 191.52 60.6 156.88 2.39"></polygon><path class="cls-1" d="M260.31,2.39h23.57V122H260.31Z"></path><path class="cls-1" d="M379.26,124.38q-25.89,0-44.08-17.94c-12-12.13-17.94-26.82-17.94-44.25s6-32.12,17.94-44.08C347.31,6,362,0,379.26,0s31.95,6,44.08,18.11c12.13,12,18.11,26.65,18.11,44.08s-6,32.12-18.11,44.25Q405.15,124.38,379.26,124.38Zm0-23.07c10.93,0,20.16-3.58,27.5-10.93s11.11-16.74,11.11-28.19S414.11,41.35,406.76,34s-16.57-11.11-27.5-11.11S359.1,26.65,351.75,34s-11.1,16.74-11.1,28.19,3.76,20.84,11.1,28.19S368.32,101.31,379.26,101.31Z"></path><path class="cls-1" d="M459.62,94.82,479.78,83c4.61,12.13,13.84,18.28,27.51,18.28,13.15,0,19.13-5.29,19.13-12.64a10.67,10.67,0,0,0-5.63-9.74c-3.76-2.39-10.43-5-20.16-7.69-10.77-3.24-17.26-5.8-24.78-11.1-7.35-5.47-11.27-13.67-11.27-24.6,0-10.77,3.75-19.48,11.44-25.8C483.71,3.25,493.11,0,503.87,0c19.31,0,34.51,9.91,42.71,26.82L526.77,38.27C522,28,514.29,22.89,503.87,22.89c-9.74,0-15.72,5-15.72,12a11.18,11.18,0,0,0,4.62,9.23C496,46.3,502,48.86,510.88,51.6l8.2,2.73a70.74,70.74,0,0,1,7.69,2.9,34.82,34.82,0,0,1,7.51,3.59c3.59,2.22,9.06,6.49,11.28,10.6A32.52,32.52,0,0,1,550,88.33c0,11.1-4.1,19.82-12.13,26.31s-18.45,9.74-31.26,9.74C482.86,124.38,466.29,113.1,459.62,94.82Z"></path><path class="cls-1" d="M87.47,122H113.1L56.55,2.39,0,122H25.46l9.81-21.53H77.71ZM45.32,78.42,56.55,53.8,67.72,78.42Z"></path></g></g></svg>