<svg width="99" height="35" viewBox="0 0 99 35" fill="none" xmlns="http://www.w3.org/2000/svg">
<path d="M4.36128 34.0842V29.5116L2.53438 32.0066L0.716432 29.5116V34.0842H0V28.3528H0.755836L2.53438 30.8066L4.31292 28.3617H5.07771V34.0932L4.36128 34.0842Z" fill="black"/>
<path d="M7.85568 28.3546H11.4772V29.0459H8.57928V30.391H11.1047V31.1075H8.57928V33.3768H11.4056V34.0932H7.85568V28.3546Z" fill="black"/>
<path d="M14.0367 28.3546H15.8887C16.6487 28.3546 17.3776 28.6565 17.915 29.1939C18.4525 29.7314 18.7544 30.4603 18.7544 31.2203C18.7544 31.9803 18.4525 32.7093 17.915 33.2467C17.3776 33.7841 16.6487 34.086 15.8887 34.086H14.0367V28.3546ZM18.1186 31.2203C18.1073 30.6385 17.8666 30.0847 17.449 29.6795C17.0313 29.2743 16.4705 29.0504 15.8887 29.0567H14.7531V33.3857H15.8887C16.4712 33.392 17.0325 33.1676 17.4502 32.7616C17.8679 32.3556 18.1082 31.8009 18.1186 31.2185V31.2203Z" fill="black"/>
<path d="M21.6022 28.3546H22.3186V34.086H21.6022V28.3546Z" fill="black"/>
<path d="M29.8519 32.5547L30.4161 32.9738C30.1393 33.3469 29.7787 33.6497 29.3634 33.8579C28.948 34.066 28.4896 34.1736 28.025 34.172C27.5132 34.173 27.0096 34.0429 26.5623 33.7942C26.115 33.5455 25.7387 33.1864 25.4695 32.7511C25.2002 32.3159 25.0468 31.8189 25.024 31.3076C25.0011 30.7963 25.1095 30.2876 25.3389 29.8301C25.5683 29.3725 25.911 28.9813 26.3343 28.6937C26.7577 28.406 27.2477 28.2316 27.7575 28.1869C28.2674 28.1422 28.7802 28.2288 29.2472 28.4385C29.7141 28.6481 30.1196 28.9738 30.4251 29.3844L29.8519 29.8018C29.6417 29.5153 29.3664 29.2828 29.0488 29.1234C28.7313 28.964 28.3804 28.8822 28.025 28.8847C27.6347 28.8844 27.2507 28.9837 26.9096 29.1734C26.5685 29.3631 26.2814 29.6368 26.0758 29.9685C25.8701 30.3003 25.7526 30.6791 25.7345 31.069C25.7163 31.4589 25.7981 31.847 25.972 32.1964C26.146 32.5458 26.4063 32.845 26.7284 33.0656C27.0504 33.2861 27.4235 33.4207 27.8122 33.4566C28.2008 33.4925 28.5922 33.4285 28.9492 33.2706C29.3062 33.1128 29.6169 32.8663 29.8519 32.5547Z" fill="black"/>
<path d="M36.2443 32.4185H33.9015L33.2657 34.0842H32.4938L34.6986 28.3528H35.4472L37.6592 34.0842H36.8783L36.2443 32.4185ZM35.0765 29.3916L34.181 31.7093H35.9595L35.0765 29.3916Z" fill="black"/>
<path d="M40.0342 28.3546H40.7506V33.3839H43.8886V34.0842H40.0342V28.3546Z" fill="black"/>
<path d="M55.142 34.0842H54.1121L52.8816 32.8448L52.004 33.7296C51.8643 33.8725 51.697 33.9854 51.5122 34.0615C51.3275 34.1375 51.1291 34.1751 50.9293 34.172C50.7297 34.174 50.5317 34.1359 50.3471 34.0599C50.1625 33.9839 49.9951 33.8716 49.8547 33.7296C49.5726 33.4449 49.4144 33.0603 49.4144 32.6594C49.4144 32.2586 49.5726 31.874 49.8547 31.5893L50.7395 30.7045L50.3813 30.3463C50.155 30.1199 50.0279 29.8129 50.0279 29.4928C50.0279 29.1727 50.155 28.8657 50.3813 28.6394C50.4938 28.5273 50.6273 28.4385 50.7742 28.378C50.9211 28.3175 51.0784 28.2866 51.2373 28.2869C51.3961 28.2872 51.5533 28.3188 51.6999 28.3799C51.8465 28.441 51.9797 28.5304 52.0918 28.6429C52.2038 28.7555 52.2926 28.889 52.3531 29.0359C52.4136 29.1827 52.4445 29.3401 52.4442 29.4989C52.4439 29.6578 52.4123 29.815 52.3512 29.9616C52.2901 30.1082 52.2007 30.2413 52.0882 30.3534L51.7622 30.6884L52.8816 31.806C53.0195 31.6292 53.0928 31.4105 53.0894 31.1863C53.083 31.0372 53.0503 30.8905 52.9927 30.7528L53.5658 30.3086C53.7064 30.5803 53.783 30.8805 53.7897 31.1863C53.7976 31.6003 53.6551 32.0031 53.3885 32.32L55.142 34.0842ZM52.3819 32.3702L51.2249 31.2185L50.3401 32.1033C50.2318 32.2192 50.1595 32.3641 50.132 32.5203C50.1045 32.6766 50.123 32.8374 50.1852 32.9833C50.2474 33.1292 50.3507 33.2539 50.4825 33.3422C50.6143 33.4305 50.7689 33.4786 50.9276 33.4806C51.1452 33.4791 51.3535 33.3923 51.5079 33.2389L52.3819 32.3702ZM50.9168 29.8752L51.2464 30.2048L51.6046 29.8465C51.6522 29.7999 51.6901 29.7441 51.7159 29.6826C51.7418 29.6211 51.7551 29.5551 51.7551 29.4883C51.7551 29.4216 51.7418 29.3556 51.7159 29.2941C51.6901 29.2325 51.6522 29.1768 51.6046 29.1301C51.5599 29.0791 51.5048 29.0383 51.443 29.0103C51.3812 28.9823 51.3142 28.9678 51.2464 28.9678C51.1785 28.9678 51.1115 28.9823 51.0497 29.0103C50.988 29.0383 50.9329 29.0791 50.8881 29.1301C50.84 29.1766 50.8016 29.2323 50.7752 29.2938C50.7487 29.3553 50.7348 29.4214 50.7341 29.4883C50.7365 29.5619 50.7539 29.6342 50.7853 29.7007C50.8167 29.7673 50.8615 29.8267 50.9168 29.8752Z" fill="black"/>
<path d="M60.9701 28.3546H62.8203C63.5804 28.3546 64.3093 28.6565 64.8467 29.1939C65.3841 29.7314 65.686 30.4603 65.686 31.2203C65.686 31.9803 65.3841 32.7093 64.8467 33.2467C64.3093 33.7841 63.5804 34.086 62.8203 34.086H60.9701V28.3546ZM65.0502 31.2203C65.0394 30.6384 64.7989 30.0843 64.3811 29.679C63.9634 29.2737 63.4023 29.05 62.8203 29.0567H61.6866V33.3857H62.8203C63.4029 33.3924 63.9645 33.1682 64.3824 32.7622C64.8002 32.3561 65.0403 31.8011 65.0502 31.2185V31.2203Z" fill="black"/>
<path d="M68.2401 28.3546H71.8617V29.0459H68.9566V30.391H71.482V31.1075H68.9566V33.3768H71.7811V34.0932H68.2401V28.3546Z" fill="black"/>
<path d="M75.2253 29.5528V34.0842H74.5089V28.3528H75.2988L78.3562 32.8824V28.3546H79.0726V34.086H78.2935L75.2253 29.5528Z" fill="black"/>
<path d="M83.2171 29.0621H81.7037V28.3546H85.4542V29.0621H83.9407V34.0771H83.2243L83.2171 29.0621Z" fill="black"/>
<path d="M90.8561 32.4185H88.5134L87.8775 34.0842H87.1056L89.3104 28.3528H90.0591L92.271 34.0842H91.4901L90.8561 32.4185ZM89.6883 29.3916L88.7928 31.7093H90.5713L89.6883 29.3916Z" fill="black"/>
<path d="M94.646 28.3546H95.3714V33.3839H98.5094V34.0842H94.646V28.3546Z" fill="black"/>
<path d="M40.8456 21.8494L34.3028 10.8539H28.4495L34.9923 21.8494H40.8456Z" fill="black"/>
<path d="M30.5057 7.39895L21.9067 21.8494H27.7599L34.3028 10.8539L30.5057 7.39895Z" fill="black"/>
<path d="M34.6538 0.428066L30.5057 7.39895L34.3027 10.8539L40.507 0.428066H34.6538Z" fill="black"/>
<path d="M28.0985 0.428066H22.2452L28.4495 10.8539H34.3028L28.0985 0.428066Z" fill="black"/>
<path d="M46.6236 0.428066H50.8452V21.8512H46.6236V0.428066Z" fill="black"/>
<path d="M67.9285 22.2774C64.8371 22.2774 62.2054 21.2064 60.0334 19.0642C57.8841 16.8917 56.8202 14.2606 56.8202 11.1387C56.8202 8.01687 57.8949 5.38578 60.0334 3.24364C62.206 1.07465 64.8371 0 67.9285 0C71.0199 0 73.651 1.07465 75.8236 3.24364C77.9961 5.39294 79.0672 8.01687 79.0672 11.1387C79.0672 14.2606 77.9926 16.8917 75.8236 19.0642C73.6516 21.2064 71.0199 22.2774 67.9285 22.2774ZM67.9285 18.1454C69.8861 18.1454 71.5393 17.5042 72.854 16.1878C74.1686 14.8713 74.8438 13.1895 74.8438 11.1387C74.8438 9.08794 74.1704 7.40611 72.854 6.08967C71.5375 4.77323 69.8861 4.09978 67.9285 4.09978C65.9708 4.09978 64.3177 4.77323 63.0012 6.08967C61.6848 7.40611 61.0131 9.08794 61.0131 11.1387C61.0131 13.1895 61.6866 14.8713 63.0012 16.1878C64.3159 17.5042 65.969 18.1454 67.9285 18.1454Z" fill="black"/>
<path d="M82.3216 16.983L85.9324 14.866C86.7581 17.0385 88.4113 18.1401 90.8597 18.1401C93.2149 18.1401 94.286 17.1926 94.286 15.8761C94.2971 15.5203 94.2086 15.1684 94.0304 14.8602C93.8522 14.5519 93.5915 14.2996 93.2776 14.1316C92.6042 13.7035 91.4095 13.2361 89.6668 12.7543C87.7378 12.174 86.5754 11.7155 85.2285 10.7662C83.9121 9.78646 83.21 8.31777 83.21 6.36012C83.21 4.43113 83.8816 2.8711 85.259 1.73914C86.6363 0.582101 88.3199 0 90.2471 0C93.7057 0 96.4281 1.77496 97.8968 4.80367L94.3487 6.85446C93.4944 5.01502 92.1134 4.09978 90.2471 4.09978C88.5026 4.09978 87.4315 4.99532 87.4315 6.24908C87.4265 6.57084 87.499 6.88909 87.6431 7.17687C87.7871 7.46464 87.9984 7.71346 88.259 7.90224C88.8375 8.2927 89.9122 8.75121 91.5027 9.24197L92.9714 9.73093C93.4401 9.87723 93.9 10.0507 94.3487 10.2503C94.8212 10.4101 95.2728 10.626 95.6938 10.8933C96.3368 11.291 97.3165 12.0558 97.7141 12.7919C98.2507 13.7099 98.5257 14.7574 98.5094 15.8206C98.5094 17.8087 97.775 19.3705 96.3368 20.5329C94.8986 21.6953 93.0322 22.2774 90.7379 22.2774C86.4841 22.2774 83.5162 20.2571 82.3216 16.983Z" fill="black"/>
<path d="M15.6666 21.8512H20.2571L10.1286 0.428066L0 21.8512H4.56009L6.31714 17.995H13.9185L15.6666 21.8512ZM8.11717 14.0456L10.1286 9.63601L12.1292 14.0456H8.11717Z" fill="black"/>
</svg>
