<svg width="99" height="23" viewBox="0 0 99 23" fill="none" xmlns="http://www.w3.org/2000/svg">
<path d="M40.8456 21.8494L34.3028 10.8539H28.4495L34.9923 21.8494H40.8456Z" fill="black"/>
<path d="M30.5057 7.39895L21.9067 21.8494H27.7599L34.3028 10.8539L30.5057 7.39895Z" fill="black"/>
<path d="M34.6538 0.428066L30.5057 7.39895L34.3028 10.8539L40.5071 0.428066H34.6538Z" fill="black"/>
<path d="M28.0985 0.428066H22.2452L28.4495 10.8539H34.3028L28.0985 0.428066Z" fill="black"/>
<path d="M46.6236 0.428066H50.8452V21.8512H46.6236V0.428066Z" fill="black"/>
<path d="M67.9285 22.2774C64.8371 22.2774 62.2054 21.2064 60.0334 19.0642C57.8841 16.8917 56.8202 14.2606 56.8202 11.1387C56.8202 8.01687 57.8949 5.38578 60.0334 3.24364C62.206 1.07465 64.8371 0 67.9285 0C71.0199 0 73.651 1.07465 75.8236 3.24364C77.9961 5.39294 79.0672 8.01687 79.0672 11.1387C79.0672 14.2606 77.9926 16.8917 75.8236 19.0642C73.6516 21.2064 71.0199 22.2774 67.9285 22.2774ZM67.9285 18.1454C69.8861 18.1454 71.5393 17.5042 72.854 16.1878C74.1686 14.8713 74.8438 13.1895 74.8438 11.1387C74.8438 9.08794 74.1704 7.40611 72.854 6.08967C71.5375 4.77323 69.8861 4.09978 67.9285 4.09978C65.9708 4.09978 64.3177 4.77323 63.0012 6.08967C61.6848 7.40611 61.0131 9.08794 61.0131 11.1387C61.0131 13.1895 61.6866 14.8713 63.0012 16.1878C64.3159 17.5042 65.969 18.1454 67.9285 18.1454Z" fill="black"/>
<path d="M82.3216 16.983L85.9324 14.866C86.7581 17.0385 88.4113 18.1401 90.8597 18.1401C93.2149 18.1401 94.286 17.1926 94.286 15.8761C94.2971 15.5203 94.2086 15.1684 94.0304 14.8602C93.8522 14.5519 93.5915 14.2996 93.2776 14.1316C92.6042 13.7035 91.4095 13.2361 89.6668 12.7543C87.7378 12.174 86.5754 11.7155 85.2285 10.7662C83.9121 9.78646 83.21 8.31777 83.21 6.36012C83.21 4.43113 83.8816 2.8711 85.259 1.73914C86.6363 0.582101 88.3199 0 90.2471 0C93.7057 0 96.4281 1.77496 97.8968 4.80367L94.3487 6.85446C93.4944 5.01502 92.1134 4.09978 90.2471 4.09978C88.5026 4.09978 87.4315 4.99532 87.4315 6.24908C87.4265 6.57084 87.499 6.88909 87.6431 7.17687C87.7871 7.46464 87.9984 7.71346 88.259 7.90224C88.8375 8.2927 89.9122 8.75121 91.5027 9.24197L92.9714 9.73093C93.4401 9.87723 93.9 10.0507 94.3487 10.2503C94.8212 10.4101 95.2728 10.626 95.6938 10.8933C96.3368 11.291 97.3165 12.0558 97.7141 12.7919C98.2507 13.7099 98.5257 14.7574 98.5094 15.8206C98.5094 17.8087 97.775 19.3705 96.3368 20.5329C94.8986 21.6953 93.0322 22.2774 90.7379 22.2774C86.4841 22.2774 83.5162 20.2571 82.3216 16.983Z" fill="black"/>
<path d="M15.6666 21.8512H20.2571L10.1286 0.428066L0 21.8512H4.56009L6.31714 17.995H13.9185L15.6666 21.8512ZM8.11717 14.0456L10.1286 9.63601L12.1292 14.0456H8.11717Z" fill="black"/>
</svg>
